<svg width="22" height="22" viewBox="0 0 22 22" fill="none" xmlns="http://www.w3.org/2000/svg">
<path d="M11 18C14.8389 18 18 14.8389 18 11C18 7.16779 14.8322 4 10.9933 4C7.16107 4 4 7.16779 4 11C4 14.8389 7.16107 18 11 18ZM7.71141 11.0067C7.71141 10.5839 8.01342 10.2819 8.42953 10.2819H10.2886V8.42282C10.2886 8.01342 10.5839 7.71141 10.9933 7.71141C11.4161 7.71141 11.7181 8.01342 11.7181 8.42282V10.2819H13.5772C13.9866 10.2819 14.2886 10.5839 14.2886 11.0067C14.2886 11.4161 13.9866 11.7114 13.5772 11.7114H11.7181V13.5772C11.7181 13.9866 11.4161 14.2819 10.9933 14.2819C10.5839 14.2819 10.2886 13.9866 10.2886 13.5772V11.7114H8.42953C8.01342 11.7114 7.71141 11.4161 7.71141 11.0067Z" fill="#37352F" fill-opacity="0.45"/>
</svg>
