<svg width="12" height="12" viewBox="0 0 12 12" fill="none" xmlns="http://www.w3.org/2000/svg">
<path d="M8.80274 5.97266C8.80274 5.72852 8.71484 5.52832 8.51465 5.33789L4.82324 1.7197C4.67676 1.5732 4.49609 1.5 4.28125 1.5C3.85156 1.5 3.5 1.8516 3.5 2.27637C3.5 2.49121 3.58789 2.69141 3.74902 2.84766L6.9668 5.96777L3.74902 9.09278C3.58789 9.25391 3.5 9.44922 3.5 9.66895C3.5 10.0986 3.85156 10.4453 4.28125 10.4453C4.49609 10.4453 4.67676 10.3721 4.82324 10.2256L8.51465 6.60742C8.71973 6.41211 8.80274 6.21192 8.80274 5.97266Z" fill="#37352F" fill-opacity="0.35"/>
</svg>
